<svg width="22" height="22" viewBox="0 0 22 22" fill="none" xmlns="http://www.w3.org/2000/svg">
<g filter="url(#filter0_d_2113_431)">
<path d="M18 5.87524C18 10.2502 11.5131 13.7915 11.2369 13.9377C11.1641 13.9769 11.0827 13.9974 11 13.9974C10.9173 13.9974 10.8359 13.9769 10.7631 13.9377C10.4869 13.7915 4 10.2502 4 5.87524C4.00116 4.84789 4.40979 3.86294 5.13624 3.13648C5.86269 2.41003 6.84764 2.0014 7.875 2.00024C9.16563 2.00024 10.2956 2.55524 11 3.49337C11.7044 2.55524 12.8344 2.00024 14.125 2.00024C15.1524 2.0014 16.1373 2.41003 16.8638 3.13648C17.5902 3.86294 17.9988 4.84789 18 5.87524Z" fill="#333333"/>
</g>
<defs>
<filter id="filter0_d_2113_431" x="-1" y="0.000244141" width="24" height="24" filterUnits="userSpaceOnUse" color-interpolation-filters="sRGB">
<feFlood flood-opacity="0" result="BackgroundImageFix"/>
<feColorMatrix in="SourceAlpha" type="matrix" values="0 0 0 0 0 0 0 0 0 0 0 0 0 0 0 0 0 0 127 0" result="hardAlpha"/>
<feOffset dy="4"/>
<feGaussianBlur stdDeviation="2"/>
<feComposite in2="hardAlpha" operator="out"/>
<feColorMatrix type="matrix" values="0 0 0 0 0 0 0 0 0 0 0 0 0 0 0 0 0 0 0.25 0"/>
<feBlend mode="normal" in2="BackgroundImageFix" result="effect1_dropShadow_2113_431"/>
<feBlend mode="normal" in="SourceGraphic" in2="effect1_dropShadow_2113_431" result="shape"/>
</filter>
</defs>
</svg>
